/* XPM */
static char * icon48x48_xpm[] = {
"48 48 484 2",
"  	c #B3690E",
". 	c #A86715",
"+ 	c #6C5A3F",
"@ 	c #41525D",
"# 	c #0E4880",
"$ 	c #044688",
"% 	c #344F66",
"& 	c #645945",
"* 	c #A66617",
"= 	c #4A5457",
"- 	c #00458B",
"; 	c #05468B",
"> 	c #06478B",
", 	c #094787",
"' 	c #00468A",
") 	c #00458A",
"! 	c #15477C",
"~ 	c #104984",
"{ 	c #154C8A",
"] 	c #154D8A",
"^ 	c #05488A",
"/ 	c #00438A",
"( 	c #625946",
"_ 	c #89612B",
": 	c #8C6129",
"< 	c #8D6128",
"[ 	c #8F6227",
"} 	c #7A5E35",
"| 	c #795D36",
"1 	c #7D5E33",
"2 	c #9E651D",
"3 	c #0E467C",
"4 	c #234970",
"5 	c #194879",
"6 	c #134270",
"7 	c #57564D",
"8 	c #84602F",
"9 	c #7E5E33",
"0 	c #7F5F32",
"a 	c #7B5E35",
"b 	c #004589",
"c 	c #024588",
"d 	c #134272",
"e 	c #034384",
"f 	c #19436D",
"g 	c #054485",
"h 	c #034587",
"i 	c #024587",
"j 	c #074583",
"k 	c #034788",
"l 	c #0C447D",
"m 	c #104278",
"n 	c #034589",
"o 	c #00468D",
"p 	c #084382",
"q 	c #054688",
"r 	c #06498E",
"s 	c #0F4477",
"t 	c #124477",
"u 	c #064789",
"v 	c #3B5161",
"w 	c #3C5161",
"x 	c #3E515F",
"y 	c #3E5160",
"z 	c #3C5265",
"A 	c #455156",
"B 	c #66553D",
"C 	c #745D3A",
"D 	c #294D6F",
"E 	c #094380",
"F 	c #064687",
"G 	c #14487C",
"H 	c #01468B",
"I 	c #655944",
"J 	c #3C5162",
"K 	c #2A4D6E",
"L 	c #2D4E6B",
"M 	c #2C4E6C",
"N 	c #B2690F",
"O 	c #395163",
"P 	c #094482",
"Q 	c #204264",
"R 	c #004790",
"S 	c #144574",
"T 	c #705735",
"U 	c #44535D",
"V 	c #374D60",
"W 	c #074482",
"X 	c #03438A",
"Y 	c #274158",
"Z 	c #03468A",
"` 	c #09447E",
" .	c #1F4163",
"..	c #224C74",
"+.	c #525551",
"@.	c #725C3C",
"#.	c #AC6813",
"$.	c #916226",
"%.	c #00468E",
"&.	c #01488E",
"*.	c #174775",
"=.	c #0B498B",
"-.	c #084889",
";.	c #044788",
">.	c #0C427C",
",.	c #034586",
"'.	c #044584",
").	c #034585",
"!.	c #204B72",
"~.	c #695A41",
"{.	c #044586",
"].	c #1A436A",
"^.	c #103F70",
"/.	c #0B4A8A",
"(.	c #275483",
"_.	c #0F4A86",
":.	c #03407C",
"<.	c #074586",
"[.	c #034789",
"}.	c #054385",
"|.	c #02458A",
"1.	c #8E6228",
"2.	c #064584",
"3.	c #084583",
"4.	c #0B437C",
"5.	c #254668",
"6.	c #37628D",
"7.	c #245485",
"8.	c #2F587E",
"9.	c #295789",
"0.	c #1E548C",
"a.	c #104983",
"b.	c #184F86",
"c.	c #014489",
"d.	c #064483",
"e.	c #044587",
"f.	c #104881",
"g.	c #064583",
"h.	c #084582",
"i.	c #004389",
"j.	c #134E8D",
"k.	c #5B6E7E",
"l.	c #385C81",
"m.	c #1C4F84",
"n.	c #235489",
"o.	c #225488",
"p.	c #124C87",
"q.	c #164D86",
"r.	c #044488",
"s.	c #495457",
"t.	c #034385",
"u.	c #084988",
"v.	c #024486",
"w.	c #004387",
"x.	c #104B86",
"y.	c #174F87",
"z.	c #034487",
"A.	c #004086",
"B.	c #174D85",
"C.	c #144D87",
"D.	c #004489",
"E.	c #054584",
"F.	c #535650",
"G.	c #034284",
"H.	c #154B81",
"I.	c #285689",
"J.	c #3D6188",
"K.	c #325882",
"L.	c #0D4A87",
"M.	c #3B5F83",
"N.	c #2B5A8D",
"O.	c #2C5988",
"P.	c #304D67",
"Q.	c #05427F",
"R.	c #04468B",
"S.	c #134C88",
"T.	c #1A5083",
"U.	c #245587",
"V.	c #1D528A",
"W.	c #084788",
"X.	c #024385",
"Y.	c #9F651C",
"Z.	c #164271",
"`.	c #0A437C",
" +	c #154E87",
".+	c #205288",
"++	c #164D85",
"@+	c #2D5884",
"#+	c #074789",
"$+	c #014488",
"%+	c #2F4E69",
"&+	c #254C72",
"*+	c #144D88",
"=+	c #426385",
"-+	c #265480",
";+	c #02468A",
">+	c #044384",
",+	c #936324",
"'+	c #12497E",
")+	c #00458C",
"!+	c #0A437D",
"~+	c #054689",
"{+	c #134C87",
"]+	c #345A80",
"^+	c #1B4F85",
"/+	c #084380",
"(+	c #0B4782",
"_+	c #53554F",
":+	c #9C641E",
"<+	c #334F67",
"[+	c #09437D",
"}+	c #114B87",
"|+	c #315880",
"1+	c #114B86",
"2+	c #03478A",
"3+	c #08437F",
"4+	c #014589",
"5+	c #174879",
"6+	c #56564F",
"7+	c #8B612A",
"8+	c #755C39",
"9+	c #044588",
"0+	c #164C87",
"a+	c #375C7E",
"b+	c #124B86",
"c+	c #02458C",
"d+	c #0A447E",
"e+	c #044486",
"f+	c #00468F",
"g+	c #374F63",
"h+	c #966322",
"i+	c #7C5E34",
"j+	c #6E5B3E",
"k+	c #6D5B3F",
"l+	c #304F68",
"m+	c #064688",
"n+	c #154D87",
"o+	c #2B5681",
"p+	c #0A4989",
"q+	c #024589",
"r+	c #044686",
"s+	c #825C2B",
"t+	c #8D5F25",
"u+	c #895B22",
"v+	c #8F5B1C",
"w+	c #AE6710",
"x+	c #615846",
"y+	c #014388",
"z+	c #074688",
"A+	c #184E87",
"B+	c #2F5781",
"C+	c #064889",
"D+	c #054484",
"E+	c #084481",
"F+	c #4C5456",
"G+	c #054383",
"H+	c #0A4583",
"I+	c #2F577F",
"J+	c #0D4989",
"K+	c #044485",
"L+	c #0E4479",
"M+	c #43535C",
"N+	c #064382",
"O+	c #054587",
"P+	c #104C87",
"Q+	c #2D5681",
"R+	c #0D4988",
"S+	c #054686",
"T+	c #40515B",
"U+	c #07437F",
"V+	c #094783",
"W+	c #124B88",
"X+	c #285682",
"Y+	c #735C3B",
"Z+	c #324D65",
"`+	c #0F4277",
" @	c #0E4883",
".@	c #114D88",
"+@	c #285681",
"@@	c #1A5085",
"#@	c #054382",
"$@	c #515553",
"%@	c #20486F",
"&@	c #084887",
"*@	c #164E87",
"=@	c #31587F",
"-@	c #1D5185",
";@	c #064689",
">@	c #074380",
",@	c #214364",
"'@	c #0B437B",
")@	c #0C4786",
"!@	c #1E5184",
"~@	c #395C7E",
"{@	c #205282",
"]@	c #054483",
"^@	c #0A4783",
"/@	c #AA6714",
"(@	c #1F4164",
"_@	c #094786",
":@	c #184E86",
"<@	c #31597F",
"[@	c #1B5084",
"}@	c #0B4889",
"|@	c #0F4478",
"1@	c #AB6714",
"2@	c #20405E",
"3@	c #0A4887",
"4@	c #245382",
"5@	c #335A7F",
"6@	c #134D86",
"7@	c #88602C",
"8@	c #5C5649",
"9@	c #1D4166",
"0@	c #00438D",
"a@	c #174E84",
"b@	c #2E587F",
"c@	c #32597F",
"d@	c #104B88",
"e@	c #0D437B",
"f@	c #635946",
"g@	c #204C72",
"h@	c #1B416A",
"i@	c #00438E",
"j@	c #194E84",
"k@	c #43627A",
"l@	c #295581",
"m@	c #2D577F",
"n@	c #05468A",
"o@	c #0A437E",
"p@	c #48535A",
"q@	c #835F30",
"r@	c #755D39",
"s@	c #174271",
"t@	c #00438C",
"u@	c #4C657A",
"v@	c #205183",
"w@	c #2B567F",
"x@	c #215183",
"y@	c #02468B",
"z@	c #054381",
"A@	c #264A6B",
"B@	c #906226",
"C@	c #A46618",
"D@	c #014587",
"E@	c #094581",
"F@	c #4A647A",
"G@	c #285582",
"H@	c #2A5680",
"I@	c #33597D",
"J@	c #06468A",
"K@	c #064581",
"L@	c #00458E",
"M@	c #45535A",
"N@	c #014588",
"O@	c #094784",
"P@	c #03458A",
"Q@	c #265483",
"R@	c #445F7A",
"S@	c #2E5882",
"T@	c #2F5780",
"U@	c #365B7E",
"V@	c #0D4A88",
"W@	c #134274",
"X@	c #264B6E",
"Y@	c #A66618",
"Z@	c #A1651A",
"`@	c #01458A",
" #	c #004388",
".#	c #084989",
"+#	c #1F5184",
"@#	c #295583",
"##	c #2A5482",
"$#	c #255483",
"%#	c #3B5C7D",
"&#	c #03468B",
"*#	c #0C427B",
"=#	c #685941",
"-#	c #16497C",
";#	c #004288",
">#	c #215282",
",#	c #174E86",
"'#	c #245383",
")#	c #265481",
"!#	c #205184",
"~#	c #385C7D",
"{#	c #44607B",
"]#	c #04478B",
"^#	c #124377",
"/#	c #43525C",
"(#	c #004287",
"_#	c #315980",
":#	c #225284",
"<#	c #064888",
"[#	c #205083",
"}#	c #2D5780",
"|#	c #235284",
"1#	c #2D5781",
"2#	c #0A4988",
"3#	c #074684",
"4#	c #375068",
"5#	c #00458D",
"6#	c #0C4277",
"7#	c #325B83",
"8#	c #1B5188",
"9#	c #1E5186",
"0#	c #08498A",
"a#	c #235385",
"b#	c #2A5584",
"c#	c #0C4C8D",
"d#	c #275585",
"e#	c #225282",
"f#	c #004386",
"g#	c #525550",
"h#	c #014385",
"i#	c #124B87",
"j#	c #05498D",
"k#	c #0A4B8E",
"l#	c #3B566E",
"m#	c #3D546A",
"n#	c #1E4D7F",
"o#	c #0C4680",
"p#	c #174A7E",
"q#	c #355779",
"r#	c #2F4C67",
"s#	c #1E4E7D",
"t#	c #285583",
"u#	c #104C8B",
"v#	c #094989",
"w#	c #0A4580",
"x#	c #705B3D",
"y#	c #064686",
"z#	c #2B517D",
"A#	c #0F4985",
"B#	c #204161",
"C#	c #35506C",
"D#	c #485E79",
"E#	c #215084",
"F#	c #1F5082",
"G#	c #215080",
"H#	c #36577A",
"I#	c #3D5772",
"J#	c #154A81",
"K#	c #0B4886",
"L#	c #215083",
"M#	c #01458B",
"N#	c #AD6812",
"O#	c #034382",
"P#	c #174D87",
"Q#	c #2E5278",
"R#	c #3A5774",
"S#	c #285B8F",
"T#	c #335F8E",
"U#	c #1D538F",
"V#	c #154D89",
"W#	c #2A5A91",
"X#	c #1E5591",
"Y#	c #1F5289",
"Z#	c #275589",
"`#	c #295684",
" $	c #124C88",
".$	c #034381",
"+$	c #0E4986",
"@$	c #0B4787",
"#$	c #034484",
"$$	c #124880",
"%$	c #2B5382",
"&$	c #265180",
"*$	c #084786",
"=$	c #004385",
"-$	c #0F4885",
";$	c #0D4987",
">$	c #024181",
",$	c #094480",
"'$	c #044381",
")$	c #00448A",
"!$	c #0E4278",
"~$	c #114172",
"{$	c #0A427B",
"]$	c #08427B",
"^$	c #014387",
"/$	c #024586",
"($	c #044382",
"_$	c #0F4276",
"                                                                                                ",
"                                        . + @ # $ % & *                                         ",
"                                        = - ; > , ' ) )                                         ",
"                                          ! ~ { ] ^ / (                                         ",
"                          _ : < < [ } | 1 2 3 4 5 6 7   8 9 0 0 0 9 a                           ",
"                          ) ) ) ) ) ) ) ) b c d e f g h - ) ) ) ) ) )                           ",
"                          ) ) ) ) ) ) ) ) - i j k l m n - ) ) ) ) ) )                           ",
"                          ) ) ) ) ) - o - - p q r ) s t u ) ) ) ) ) )                           ",
"                          v w x y z A B C D E F G H i & I J K L L M M                           ",
"                                        N O P t Q R S                                           ",
"                                  T U V W h X Y n Z `  ...+.@.#.                                ",
"                                $.%.) ) c h &.*.=.-.;.>.,.'.).!.                                ",
"                                ~.- h {.n ].^./.(._.:.<.[.}.W |.                                ",
"                                1.- 2.3.4.5.6.7.8.9.0.a.b.c.d.e.                                ",
"                                  f.g.h.i.j.k.l.m.n.o.p.q.r.g.s.                                ",
"                                  $.i t.u.v.w.x.y.z.A.B.C.D.E.                                  ",
"                                    F.G.H.I.J.K.L.M.N.O.g h $.                                  ",
"                                      P.Q.R.o.S.T.U.V.W.X.~.                                    ",
"                                      Y.Z.`. +.+++@+#+$+%+                                      ",
"                                        &+d i *+=+-+;+>+,+                                      ",
"                                    < '+)+!+~+{+]+^+) /+(+_+                                    ",
"                                :+I <+) - [+e.}+|+1+2+3+4+5+6+7+                                ",
"                              8+) ) ) ) - !+9+0+a+b+c+d+e+f+- )+g+                              ",
"                                h+i+j+k+l+3+m+n+o+p+q+r+s+t+u+v+w+                              ",
"                                        x+y+z+A+B+C+D+E+                                        ",
"                                        F+G+H+C.I+J+K+L+Y.                                      ",
"                                        M+N+O+P+Q+R+S+d 1.                                      ",
"                                        T+U+V+W+X+{+O+!+Y+                                      ",
"                                        Z+`+ @.@+@@@m+#@$@                                      ",
"                                        %@X.&@*@=@-@;@>@K                                       ",
"                                        ,@'@)@!@~@{@-.]@^@                                      ",
"                                      /@(@` _@:@<@[@}@v.|@1@                                    ",
"                                      : 2@E+3@4@5@^+6@c.L+7@                                    ",
"                                      8@9@0@a@b@c@=@d@- e@f@                                    ",
"                                      g@h@i@j@k@l@m@m.n@o@p@                                    ",
"                                  q@r@h s@t@b.u@v@w@x@y@z@A@B@N                                 ",
"                                C@) - D@E@)+m.F@G@H@I@J@K@d+L@M@                                ",
"                                  _ ) N@O@P@Q@R@S@T@U@V@c.W@X@Y@                                ",
"                                  Z@`@ #1+.#+#@###$#%#n+&#*#=#                                  ",
"                                  -#q+;#>#,#'#)#!#~#{#l@]#>@^#                                  ",
"                                /#- d+(#_#(.:#<#[#}#|#1#2#3#o@4#                                ",
"                              ( 5#6#z@- 7#8#9#0#a#b#c#d#e#q f#4+g#                              ",
"                            7@- h#i#j#k#l#m#n#o#p#q#r#s#t#u#v#z@w#x#                            ",
"                            y#- W z#A#B#C#D#E#F#G#H#I#J#K#1+L#U+c M#_                           ",
"                          N#$ - O#P#Q#R#S#T#U#-.V#W#X#Y#Z#`# $y+c 4+k+                          ",
"                          ) ) - {..$+$@$9+#$$$%$&$*$=$j -$;$>$q+q+) )                           ",
"                          ) ) - - ,$'$)$)+!$~${$]$^$/$i ($h#_$h - ) )                           ",
"                                                                                                "};
